# xmcd
#
# Track frame offsets:
#	182
#	14190
#	27685
#	43710
#	59462
#	74170
#	85490
#	97265
#	108577
#	122635
#	134500
#	143182
#	154077
#	169710
#	182145
#	193915
#	205897
#	217090
#	232670
#	243787
#	255105
#	265600
#	279990
#	294757
#	305602
#	319442
#
# Disc length: 4435 seconds
#
# Revision: 0
# Processed by: cddbd v1.5.1PL2 Copyright (c) Steve Scherf et al.
# Submitted via: EasyCDDAExtractor 9.1.3.1
#
DISCID=9211511a
DTITLE=Dick Rivers - Dick Rivers Story
DYEAR=1999
DGENRE=Chanson
TTITLE0=Madame
TTITLE1=Marylène
TTITLE2=Le charlatan
TTITLE3=L'enfant et la guitare
TTITLE4=Viens tout connaître
TTITLE5=Il a pris le temps
TTITLE6=Personne ne m'aime
TTITLE7=J'en ai assez
TTITLE8=Je suis triste
TTITLE9=Il avait oublié
TTITLE10=Cinq heures sonnent
TTITLE11=A quoi bon m'aimer
TTITLE12=L'histoire d'un homme
TTITLE13=Tu ne volers pas
TTITLE14=Ton prénom je l'aime
TTITLE15=Je veux rentrer chez moi
TTITLE16=Le vicomte
TTITLE17=Storia di un uomo (L'histoire d'un homme - En italien)
TTITLE18=Jéricho
TTITLE19=A l'ombre de mes souvenirs
TTITLE20=Madame Strawberry
TTITLE21=Pars
TTITLE22=Donne
TTITLE23=Eléna
TTITLE24=Les portes de la nuit
TTITLE25=Un coeur blessé
EXTD=
EXTT0=
EXTT1=
EXTT2=
EXTT3=
EXTT4=
EXTT5=
EXTT6=
EXTT7=
EXTT8=
EXTT9=
EXTT10=
EXTT11=
EXTT12=
EXTT13=
EXTT14=
EXTT15=
EXTT16=
EXTT17=
EXTT18=
EXTT19=
EXTT20=
EXTT21=
EXTT22=
EXTT23=
EXTT24=
EXTT25=
PLAYORDER=
